<svg width="650" height="512" viewBox="0 0 650 512" fill="none" xmlns="http://www.w3.org/2000/svg">
<path d="M337.968 423.695C430.584 423.695 505.663 348.615 505.663 256C505.663 163.385 430.584 88.305 337.968 88.305C245.353 88.305 170.273 163.385 170.273 256C170.273 348.615 245.353 423.695 337.968 423.695Z" fill="#DBE8EC"/>
<path d="M564.585 220.903V202.794C564.585 199.34 563.213 196.028 560.771 193.587C558.329 191.145 555.017 189.773 551.564 189.773H505.605C502.151 189.773 498.84 188.401 496.398 185.959C493.956 183.517 492.584 180.205 492.584 176.752V158.642C492.584 155.189 493.956 151.877 496.398 149.435C498.839 146.993 502.151 145.621 505.605 145.621H507.056C510.509 145.621 513.821 144.25 516.263 141.808C518.705 139.366 520.077 136.054 520.077 132.601V114.491C520.077 111.038 518.705 107.726 516.263 105.284C513.821 102.842 510.509 101.47 507.056 101.47H173.137C169.683 101.47 166.371 102.842 163.929 105.284C161.488 107.726 160.116 111.038 160.116 114.491V132.601C160.116 136.054 161.488 139.366 163.929 141.808C166.371 144.25 169.683 145.621 173.137 145.621C176.59 145.621 179.902 146.993 182.344 149.435C184.786 151.877 186.157 155.189 186.157 158.642V176.752C186.157 180.205 184.786 183.517 182.344 185.959C179.902 188.401 176.59 189.773 173.137 189.773H122.784C119.33 189.773 116.019 191.145 113.577 193.587C111.135 196.028 109.763 199.34 109.763 202.794V220.903C109.763 224.357 111.135 227.669 113.577 230.111C116.019 232.552 119.33 233.924 122.784 233.924H142.541C144.251 233.924 145.945 234.261 147.524 234.915C149.104 235.57 150.54 236.529 151.749 237.738C152.958 238.947 153.917 240.382 154.571 241.962C155.226 243.542 155.562 245.235 155.562 246.945V265.055C155.562 268.508 154.191 271.82 151.749 274.262C149.307 276.704 145.995 278.076 142.542 278.076H142.494C139.04 278.076 135.729 279.448 133.287 281.889C130.845 284.331 129.473 287.643 129.473 291.097V309.206C129.473 312.66 130.845 315.971 133.287 318.413C135.729 320.855 139.04 322.227 142.494 322.227H145.352C147.062 322.227 148.755 322.564 150.335 323.218C151.915 323.873 153.35 324.832 154.559 326.041C155.769 327.25 156.728 328.685 157.382 330.265C158.036 331.845 158.373 333.538 158.373 335.248V353.358C158.373 356.811 157.001 360.123 154.559 362.565C152.118 365.007 148.806 366.379 145.352 366.379H98.4388C94.9855 366.379 91.6736 367.75 89.2317 370.192C86.7898 372.634 85.418 375.946 85.418 379.4V397.509C85.418 400.963 86.7898 404.274 89.2317 406.716C91.6736 409.158 94.9855 410.53 98.4388 410.53H514.046C517.5 410.53 520.812 409.158 523.254 406.716C525.695 404.274 527.067 400.962 527.067 397.509V379.399C527.067 375.946 525.695 372.634 523.254 370.192C520.812 367.75 517.5 366.379 514.046 366.379H502.757C499.303 366.379 495.991 365.007 493.55 362.565C491.108 360.123 489.736 356.811 489.736 353.358V335.248C489.736 331.795 491.108 328.483 493.55 326.041C495.991 323.599 499.303 322.227 502.757 322.227H529.377C532.83 322.227 536.142 320.855 538.584 318.413C541.026 315.971 542.398 312.66 542.398 309.206V291.097C542.398 287.643 541.026 284.331 538.584 281.889C536.142 279.448 532.83 278.076 529.377 278.076H521.301C517.848 278.076 514.536 276.704 512.094 274.262C509.652 271.82 508.281 268.508 508.281 265.055V246.945C508.281 243.492 509.652 240.18 512.094 237.738C514.536 235.296 517.848 233.924 521.301 233.924H551.564C555.017 233.924 558.329 232.552 560.771 230.111C563.213 227.669 564.585 224.357 564.585 220.903Z" fill="#DBE8EC"/>
<path d="M384.773 92.159H417.075" stroke="#B9D4DB" stroke-width="3" stroke-miterlimit="10" stroke-linecap="round"/>
<path d="M384.773 101.47H417.075" stroke="#B9D4DB" stroke-width="3" stroke-miterlimit="10" stroke-linecap="round"/>
<path d="M384.773 110.781H417.075" stroke="#B9D4DB" stroke-width="3" stroke-miterlimit="10" stroke-linecap="round"/>
<path d="M119.152 289.908H151.455" stroke="#B9D4DB" stroke-width="3" stroke-miterlimit="10" stroke-linecap="round"/>
<path d="M119.152 299.218H151.455" stroke="#B9D4DB" stroke-width="3" stroke-miterlimit="10" stroke-linecap="round"/>
<path d="M119.152 308.529H151.455" stroke="#B9D4DB" stroke-width="3" stroke-miterlimit="10" stroke-linecap="round"/>
<path d="M505.664 375.236H537.967" stroke="#B9D4DB" stroke-width="3" stroke-miterlimit="10" stroke-linecap="round"/>
<path d="M505.664 384.546H537.967" stroke="#B9D4DB" stroke-width="3" stroke-miterlimit="10" stroke-linecap="round"/>
<path d="M505.664 393.857H537.967" stroke="#B9D4DB" stroke-width="3" stroke-miterlimit="10" stroke-linecap="round"/>
<path d="M546.78 216.154C554.405 216.154 560.587 209.972 560.587 202.347C560.587 194.722 554.405 188.54 546.78 188.54C539.154 188.54 532.973 194.722 532.973 202.347C532.973 209.972 539.154 216.154 546.78 216.154Z" fill="#B9D4DB"/>
<path d="M510.343 219.471C514.296 219.471 517.502 216.266 517.502 212.312C517.502 208.358 514.296 205.153 510.343 205.153C506.389 205.153 503.184 208.358 503.184 212.312C503.184 216.266 506.389 219.471 510.343 219.471Z" fill="#B9D4DB"/>
<path d="M528.525 178.79C534.174 178.79 538.753 174.211 538.753 168.562C538.753 162.913 534.174 158.334 528.525 158.334C522.876 158.334 518.297 162.913 518.297 168.562C518.297 174.211 522.876 178.79 528.525 178.79Z" fill="#B9D4DB"/>
<path d="M164.381 405.83C173.454 405.83 180.809 398.475 180.809 389.402C180.809 380.329 173.454 372.974 164.381 372.974C155.308 372.974 147.953 380.329 147.953 389.402C147.953 398.475 155.308 405.83 164.381 405.83Z" fill="#B9D4DB"/>
<path d="M131.897 406.155C136.623 406.155 140.454 402.324 140.454 397.598C140.454 392.872 136.623 389.041 131.897 389.041C127.171 389.041 123.34 392.872 123.34 397.598C123.34 402.324 127.171 406.155 131.897 406.155Z" fill="#B9D4DB"/>
<path d="M121.846 374.128C124.572 374.128 126.782 371.918 126.782 369.192C126.782 366.466 124.572 364.256 121.846 364.256C119.12 364.256 116.91 366.466 116.91 369.192C116.91 371.918 119.12 374.128 121.846 374.128Z" fill="#B9D4DB"/>
<path d="M146.321 368.382C152.856 368.382 158.154 363.084 158.154 356.549C158.154 350.014 152.856 344.716 146.321 344.716C139.786 344.716 134.488 350.014 134.488 356.549C134.488 363.084 139.786 368.382 146.321 368.382Z" fill="#B9D4DB"/>
<path d="M250.432 151.891C259.505 151.891 266.86 144.536 266.86 135.463C266.86 126.39 259.505 119.035 250.432 119.035C241.359 119.035 234.004 126.39 234.004 135.463C234.004 144.536 241.359 151.891 250.432 151.891Z" fill="#B9D4DB"/>
<path d="M251.096 110.525C255.822 110.525 259.653 106.694 259.653 101.968C259.653 97.2421 255.822 93.411 251.096 93.411C246.37 93.411 242.539 97.2421 242.539 101.968C242.539 106.694 246.37 110.525 251.096 110.525Z" fill="#B9D4DB"/>
<path d="M308.09 114.374C312.18 114.374 315.496 111.058 315.496 106.968C315.496 102.878 312.18 99.562 308.09 99.562C303.999 99.562 300.684 102.878 300.684 106.968C300.684 111.058 303.999 114.374 308.09 114.374Z" fill="#B9D4DB"/>
<path d="M281.147 104.707C283.873 104.707 286.083 102.497 286.083 99.771C286.083 97.0449 283.873 94.835 281.147 94.835C278.421 94.835 276.211 97.0449 276.211 99.771C276.211 102.497 278.421 104.707 281.147 104.707Z" fill="#B9D4DB"/>
<path d="M286.884 138.546C293.419 138.546 298.717 133.248 298.717 126.713C298.717 120.178 293.419 114.88 286.884 114.88C280.349 114.88 275.051 120.178 275.051 126.713C275.051 133.248 280.349 138.546 286.884 138.546Z" fill="#B9D4DB"/>
<path d="M483.964 291.561L374.754 350.388V216.949L483.964 182.855V291.561Z" fill="#E06714"/>
<path d="M374.754 216.949L245.833 203.907L219.411 164.926C219.105 164.475 218.928 163.949 218.899 163.405C218.869 162.861 218.989 162.319 219.244 161.838C219.499 161.356 219.881 160.953 220.348 160.672C220.815 160.392 221.35 160.243 221.895 160.243H343.339C343.888 160.243 344.425 160.393 344.894 160.678C345.363 160.962 345.745 161.369 345.999 161.855L374.754 216.949Z" fill="#F9AE2B"/>
<path d="M245.831 337.346L200.807 327.978C200.132 327.838 199.526 327.469 199.091 326.934C198.655 326.399 198.418 325.73 198.418 325.041V197.73C198.418 197.285 198.517 196.844 198.709 196.442C198.9 196.039 199.179 195.684 199.525 195.403C199.871 195.122 200.275 194.921 200.708 194.816C201.141 194.71 201.593 194.702 202.029 194.793L245.831 203.907V337.346ZM418.217 364.859L374.752 350.388V216.949L420.112 232.051C420.71 232.25 421.23 232.632 421.598 233.142C421.966 233.653 422.165 234.267 422.165 234.897V362.012C422.165 362.488 422.052 362.956 421.835 363.379C421.619 363.802 421.305 364.168 420.919 364.446C420.534 364.724 420.088 364.906 419.618 364.978C419.148 365.05 418.668 365.009 418.217 364.859Z" fill="#F9AE2B"/>
<path d="M374.753 350.388L245.832 337.346V203.907L374.753 216.949V350.388Z" fill="#409CB5"/>
<path d="M341.969 386.091L210.426 380.843L245.832 337.346L374.753 350.388L344.345 385.071C344.05 385.408 343.684 385.674 343.273 385.85C342.862 386.027 342.416 386.109 341.969 386.091Z" fill="#F9AE2B"/>
<path d="M374.753 216.949L483.963 182.855L350.473 170.429L374.753 216.949Z" fill="#EE781D"/>
<path d="M245.832 337.346L374.753 277.148V216.949L245.832 203.907V337.346Z" fill="#25788E"/>
<path d="M253.563 293.863C253.563 293.863 267.648 287.701 271.389 292.102C275.13 296.504 283.493 298.484 283.493 298.484L290.755 286.16L310.562 295.403L321.346 310.148L314.303 327.534C314.303 327.534 299.999 327.314 293.176 330.175C286.354 333.036 268.528 333.256 268.528 333.256L260.385 317.631C260.385 317.631 250.042 302.446 253.563 293.863Z" fill="#DBE8EC"/>
<path d="M283.492 298.484C284.847 299.684 286.148 300.929 287.423 302.196C288.709 303.453 289.947 304.751 291.189 306.045C292.405 307.361 293.654 308.649 294.833 309.996C296.022 311.334 297.233 312.654 298.383 314.026L295.847 315.28C295.272 312.888 294.705 310.493 294.196 308.086C293.677 305.68 293.232 303.258 292.767 300.841C291.919 295.987 291.129 291.121 290.755 286.16C292.551 290.799 293.931 295.532 295.254 300.278C295.874 302.661 296.515 305.039 297.081 307.433C297.657 309.826 298.175 312.231 298.685 314.638L298.69 314.659C298.757 314.977 298.716 315.308 298.574 315.6C298.431 315.892 298.195 316.127 297.902 316.269C297.61 316.411 297.279 316.451 296.961 316.383C296.644 316.315 296.358 316.142 296.15 315.893C295.004 314.518 293.919 313.093 292.813 311.685C291.696 310.286 290.649 308.829 289.569 307.399C288.516 305.947 287.458 304.499 286.448 303.01C285.428 301.531 284.433 300.03 283.492 298.484Z" fill="#BAD5DB"/>
<path d="M310.562 295.403C309.722 297.215 308.777 298.955 307.835 300.698C306.868 302.423 305.895 304.145 304.868 305.83C303.872 307.535 302.799 309.188 301.753 310.86C300.698 312.526 299.584 314.151 298.503 315.799L296.975 313.495C298.979 313.083 300.991 312.709 303.007 312.352C305.03 312.036 307.042 311.66 309.075 311.393C311.101 311.092 313.139 310.847 315.18 310.617C317.228 310.424 319.273 310.215 321.346 310.148C319.406 310.884 317.438 311.477 315.473 312.085C313.501 312.657 311.525 313.214 309.539 313.715C307.559 314.25 305.557 314.675 303.568 315.161C301.57 315.606 299.569 316.034 297.56 316.424L297.529 316.43C297.238 316.487 296.937 316.455 296.665 316.339C296.393 316.224 296.161 316.029 296 315.78C295.839 315.532 295.756 315.241 295.762 314.945C295.768 314.649 295.862 314.362 296.032 314.119C297.167 312.508 298.269 310.874 299.43 309.281C300.599 307.693 301.743 306.087 302.962 304.533C304.151 302.959 305.393 301.421 306.642 299.887C307.916 298.37 309.187 296.851 310.562 295.403Z" fill="#BAD5DB"/>
<path d="M314.304 327.534C312.68 326.764 311.143 325.875 309.597 324.997C308.072 324.093 306.56 323.17 305.078 322.206C302.097 320.302 299.212 318.268 296.38 316.162L298.547 315.734C296.835 318.524 295.061 321.276 293.157 323.95C292.226 325.299 291.237 326.614 290.244 327.926C289.227 329.223 288.211 330.521 287.09 331.755C287.665 330.19 288.345 328.688 289.025 327.186C289.728 325.699 290.436 324.214 291.201 322.764C292.69 319.84 294.309 316.993 295.99 314.185C296.09 314.017 296.222 313.871 296.379 313.754C296.536 313.638 296.714 313.553 296.904 313.506C297.093 313.458 297.29 313.448 297.483 313.477C297.677 313.505 297.862 313.572 298.03 313.672L298.143 313.747L298.156 313.757C301.003 315.842 303.797 318 306.494 320.288C307.852 321.419 309.18 322.592 310.493 323.783C311.787 325.002 313.09 326.208 314.304 327.534Z" fill="#BAD5DB"/>
<path d="M253.562 293.863C261.166 296.718 268.582 299.96 275.971 303.259C279.648 304.943 283.334 306.611 286.978 308.365C290.641 310.079 294.27 311.864 297.898 313.652L297.909 313.658C298.14 313.772 298.336 313.945 298.478 314.16C298.62 314.375 298.702 314.623 298.716 314.881C298.73 315.138 298.676 315.394 298.558 315.623C298.44 315.852 298.263 316.046 298.046 316.184C295.651 317.708 293.205 319.154 290.785 320.638C288.368 322.129 285.9 323.538 283.46 324.991C280.996 326.408 278.542 327.841 276.049 329.211C273.568 330.6 271.061 331.948 268.528 333.256C270.782 331.511 273.065 329.81 275.375 328.152C277.672 326.473 280.009 324.857 282.334 323.224C284.684 321.629 287.005 319.988 289.379 318.43C291.748 316.864 294.092 315.26 296.487 313.735L296.636 316.267C292.979 314.539 289.324 312.807 285.703 311.005C282.063 309.244 278.465 307.395 274.858 305.563C267.679 301.83 260.527 298.04 253.562 293.863Z" fill="#BAD5DB"/>
<path d="M259.484 316.225C262.055 315.254 264.528 314.04 266.869 312.6C269.048 311.315 270.863 309.494 272.142 307.311C273.25 305.076 273.648 302.556 273.285 300.088C272.911 297.371 272.276 294.697 271.387 292.102C273.364 294.25 274.807 296.833 275.601 299.642C276.508 302.661 276.217 305.914 274.787 308.724C273.245 311.417 270.843 313.514 267.966 314.679C265.296 315.842 262.393 316.371 259.484 316.225ZM281.977 307.58C281.814 309.63 281.462 311.661 280.923 313.647C280.411 315.6 279.793 317.524 279.073 319.411C278.358 321.299 277.54 323.147 276.622 324.946C275.703 326.787 274.613 328.537 273.367 330.174C273.526 328.123 273.878 326.091 274.417 324.105C274.929 322.152 275.548 320.228 276.271 318.343C276.989 316.456 277.809 314.609 278.726 312.81C279.646 310.97 280.734 309.219 281.977 307.58Z" fill="#BAD5DB"/>
<path d="M252.83 366.415C252.83 366.415 242.101 377.425 236.978 374.756C231.855 372.086 223.362 373.399 223.362 373.399L221.273 387.551L199.443 386.443L183.903 376.841L183.883 358.084C183.883 358.084 197.218 352.903 202.462 347.684C207.706 342.466 224.138 335.552 224.138 335.552L237.563 346.963C237.563 346.963 252.862 357.138 252.83 366.415Z" fill="#C0D8DD"/>
<path d="M223.363 373.399C220.037 372.031 216.787 370.519 213.551 368.981C211.943 368.194 210.322 367.431 208.729 366.615C207.132 365.807 205.526 365.016 203.945 364.177L205.196 362.766C208.058 366.77 210.823 370.841 213.534 374.95C216.213 379.081 218.86 383.234 221.273 387.55C218.062 383.79 215.085 379.867 212.139 375.921C209.226 371.954 206.366 367.948 203.604 363.875L203.597 363.864C203.475 363.685 203.417 363.47 203.432 363.254C203.447 363.038 203.533 362.833 203.678 362.672C203.823 362.511 204.018 362.403 204.231 362.365C204.444 362.328 204.664 362.362 204.855 362.464C206.435 363.305 207.989 364.193 209.553 365.065C211.12 365.929 212.659 366.846 214.212 367.738C217.297 369.56 220.368 371.408 223.363 373.399Z" fill="#9FC6CC"/>
<path d="M199.443 386.443C199.872 382.504 200.489 378.606 201.169 374.721C201.839 370.834 202.619 366.97 203.425 363.112L204.947 364.152L199.8 367.498C198.061 368.576 196.343 369.689 194.585 370.74C192.84 371.81 191.073 372.848 189.301 373.878C187.516 374.887 185.735 375.904 183.902 376.842C185.485 375.525 187.121 374.289 188.752 373.045C190.396 371.821 192.045 370.606 193.716 369.422C195.374 368.219 197.073 367.079 198.749 365.904L203.85 362.489C204.015 362.379 204.209 362.321 204.408 362.322C204.606 362.322 204.799 362.383 204.963 362.495C205.127 362.607 205.253 362.765 205.326 362.949C205.399 363.134 205.415 363.336 205.373 363.529C204.527 367.379 203.654 371.223 202.672 375.043C201.701 378.865 200.667 382.674 199.443 386.443Z" fill="#9FC6CC"/>
<path d="M183.883 358.084C185.649 358.297 187.392 358.606 189.136 358.905C190.875 359.227 192.611 359.563 194.338 359.932C197.795 360.657 201.227 361.48 204.645 362.358L203.418 363.163C203.7 361.551 203.949 359.933 204.257 358.325C204.562 356.717 204.854 355.106 205.2 353.504C205.866 350.296 206.592 347.097 207.507 343.929C207.386 347.224 207.076 350.49 206.706 353.745C206.534 355.375 206.308 356.997 206.095 358.62C205.886 360.244 205.617 361.858 205.38 363.478C205.343 363.735 205.204 363.967 204.996 364.123C204.787 364.278 204.525 364.344 204.268 364.307L204.169 364.287L204.153 364.283C200.733 363.415 197.326 362.493 193.944 361.472C192.252 360.969 190.568 360.432 188.887 359.88C187.213 359.307 185.536 358.743 183.883 358.084Z" fill="#9FC6CC"/>
<path d="M252.832 366.415C248.781 366.403 244.736 366.289 240.69 366.187C236.645 366.068 232.604 365.896 228.562 365.719C220.483 365.33 212.408 364.853 204.34 364.286L204.332 364.286C204.161 364.274 203.996 364.216 203.854 364.119C203.713 364.022 203.599 363.889 203.526 363.733C203.453 363.578 203.422 363.406 203.437 363.235C203.453 363.064 203.513 362.9 203.613 362.76C205.258 360.446 206.954 358.168 208.625 355.873C210.291 353.574 212.011 351.313 213.701 349.032C215.419 346.769 217.114 344.491 218.87 342.256C220.621 340.017 222.344 337.758 224.14 335.552C222.646 337.973 221.079 340.343 219.54 342.732C218.006 345.125 216.412 347.475 214.84 349.841C213.24 352.187 211.67 354.554 210.047 356.884C208.428 359.216 206.835 361.567 205.19 363.881L204.463 362.355C212.539 362.811 220.608 363.365 228.671 364.017C232.702 364.355 236.732 364.698 240.759 365.095C244.785 365.509 248.812 365.911 252.832 366.415Z" fill="#9FC6CC"/>
<path d="M238.924 347.927C236.779 349.66 234.84 351.634 233.143 353.808C231.492 355.849 230.425 358.299 230.056 360.897C229.917 362.165 230.021 363.448 230.364 364.677C230.693 365.947 231.204 367.164 231.879 368.289C233.322 370.634 235.033 372.805 236.977 374.756C234.467 373.359 232.283 371.444 230.57 369.139C228.714 366.731 227.822 363.719 228.068 360.689C228.481 357.712 229.844 354.948 231.953 352.808C233.91 350.711 236.285 349.049 238.924 347.927ZM221.34 364.403C220.906 362.416 220.603 360.403 220.431 358.376C220.241 356.365 220.119 354.352 220.077 352.338C220.027 350.323 220.063 348.307 220.164 346.29C220.247 344.257 220.463 342.233 220.812 340.229C221.248 342.216 221.553 344.229 221.724 346.256C221.913 348.267 222.037 350.28 222.076 352.294C222.121 354.309 222.087 356.325 221.985 358.342C221.902 360.374 221.686 362.399 221.34 364.403Z" fill="#9FC6CC"/>
</svg>
