<svg width="30" height="30" viewBox="0 0 30 30" fill="none" xmlns="http://www.w3.org/2000/svg">
<path d="M26.1213 3.87868C24.9497 2.70711 23.0503 2.70711 21.8787 3.87868L10.5 15.2574V19.5H14.7426L26.1213 8.12132C27.2929 6.94975 27.2929 5.05025 26.1213 3.87868Z" fill="#3267E3"/>
<path fill-rule="evenodd" clip-rule="evenodd" d="M3 9C3 7.34315 4.34315 6 6 6H12C12.8284 6 13.5 6.67157 13.5 7.5C13.5 8.32843 12.8284 9 12 9H6V24H21V18C21 17.1716 21.6716 16.5 22.5 16.5C23.3284 16.5 24 17.1716 24 18V24C24 25.6569 22.6569 27 21 27H6C4.34315 27 3 25.6569 3 24V9Z" fill="#3267E3"/>
</svg>
