<svg width="20" height="20" viewBox="0 0 20 20" fill="none" xmlns="http://www.w3.org/2000/svg">
<path fill-rule="evenodd" clip-rule="evenodd" d="M10 17.5C14.1421 17.5 17.5 14.1421 17.5 10C17.5 5.85786 14.1421 2.5 10 2.5C5.85786 2.5 2.5 5.85786 2.5 10C2.5 14.1421 5.85786 17.5 10 17.5ZM11 5.41667C11 4.86438 10.5523 4.41667 10 4.41667C9.44772 4.41667 9 4.86438 9 5.41667V9.75C9 10.4404 9.55965 11 10.25 11H12.9167C13.469 11 13.9167 10.5523 13.9167 10C13.9167 9.44772 13.469 9 12.9167 9H11V5.41667Z" fill="#3267E3"/>
</svg>
