<svg width="20" height="20" viewBox="0 0 20 20" fill="none" xmlns="http://www.w3.org/2000/svg">
<path d="M1.66699 7.50002C1.66699 6.25387 1.66699 5.63079 1.93494 5.16669C2.11048 4.86265 2.36295 4.61017 2.66699 4.43464C3.13109 4.16669 3.75417 4.16669 5.00033 4.16669H15.0003C16.2465 4.16669 16.8696 4.16669 17.3337 4.43464C17.6377 4.61017 17.8902 4.86265 18.0657 5.16669C18.3337 5.63079 18.3337 6.25387 18.3337 7.50002C18.3337 7.81156 18.3337 7.96733 18.2667 8.08335C18.2228 8.15936 18.1597 8.22248 18.0837 8.26637C17.9676 8.33335 17.8119 8.33335 17.5003 8.33335H2.50032C2.18879 8.33335 2.03302 8.33335 1.91699 8.26637C1.84098 8.22248 1.77786 8.15936 1.73398 8.08335C1.66699 7.96733 1.66699 7.81156 1.66699 7.50002Z" fill="#3267E3"/>
<path fill-rule="evenodd" clip-rule="evenodd" d="M1.66699 14.3333C1.66699 16.219 1.66699 17.1618 2.25278 17.7475C2.83857 18.3333 3.78137 18.3333 5.66699 18.3333H14.3337C16.2193 18.3333 17.1621 18.3333 17.7479 17.7475C18.3337 17.1618 18.3337 16.219 18.3337 14.3333V11C18.3337 10.5286 18.3337 10.2929 18.1872 10.1464C18.0408 10 17.8051 10 17.3337 10H2.66699C2.19559 10 1.95989 10 1.81344 10.1464C1.66699 10.2929 1.66699 10.5286 1.66699 11V14.3333ZM5.83366 12.5C5.83366 12.1885 5.83366 12.0327 5.90065 11.9167C5.94453 11.8407 6.00765 11.7775 6.08366 11.7337C6.19969 11.6667 6.35545 11.6667 6.66699 11.6667H8.33366C8.6452 11.6667 8.80097 11.6667 8.91699 11.7337C8.993 11.7775 9.05612 11.8407 9.10001 11.9167C9.16699 12.0327 9.16699 12.1885 9.16699 12.5C9.16699 12.8115 9.16699 12.9673 9.10001 13.0833C9.05612 13.1593 8.993 13.2225 8.91699 13.2663C8.80097 13.3333 8.6452 13.3333 8.33366 13.3333H6.66699C6.35545 13.3333 6.19969 13.3333 6.08366 13.2663C6.00765 13.2225 5.94453 13.1593 5.90065 13.0833C5.83366 12.9673 5.83366 12.8115 5.83366 12.5ZM5.90065 15.25C5.83366 15.366 5.83366 15.5218 5.83366 15.8333C5.83366 16.1449 5.83366 16.3006 5.90065 16.4167C5.94453 16.4927 6.00765 16.5558 6.08366 16.5997C6.19969 16.6667 6.35545 16.6667 6.66699 16.6667H8.33366C8.6452 16.6667 8.80097 16.6667 8.91699 16.5997C8.993 16.5558 9.05612 16.4927 9.10001 16.4167C9.16699 16.3006 9.16699 16.1449 9.16699 15.8333C9.16699 15.5218 9.16699 15.366 9.10001 15.25C9.05612 15.174 8.993 15.1109 8.91699 15.067C8.80097 15 8.6452 15 8.33366 15H6.66699C6.35545 15 6.19969 15 6.08366 15.067C6.00765 15.1109 5.94453 15.174 5.90065 15.25ZM10.8337 12.5C10.8337 12.1885 10.8337 12.0327 10.9006 11.9167C10.9445 11.8407 11.0076 11.7775 11.0837 11.7337C11.1997 11.6667 11.3555 11.6667 11.667 11.6667H13.3337C13.6452 11.6667 13.801 11.6667 13.917 11.7337C13.993 11.7775 14.0561 11.8407 14.1 11.9167C14.167 12.0327 14.167 12.1885 14.167 12.5C14.167 12.8115 14.167 12.9673 14.1 13.0833C14.0561 13.1593 13.993 13.2225 13.917 13.2663C13.801 13.3333 13.6452 13.3333 13.3337 13.3333H11.667C11.3555 13.3333 11.1997 13.3333 11.0837 13.2663C11.0076 13.2225 10.9445 13.1593 10.9006 13.0833C10.8337 12.9673 10.8337 12.8115 10.8337 12.5ZM10.9006 15.25C10.8337 15.366 10.8337 15.5218 10.8337 15.8333C10.8337 16.1449 10.8337 16.3006 10.9006 16.4167C10.9445 16.4927 11.0076 16.5558 11.0837 16.5997C11.1997 16.6667 11.3555 16.6667 11.667 16.6667H13.3337C13.6452 16.6667 13.801 16.6667 13.917 16.5997C13.993 16.5558 14.0561 16.4927 14.1 16.4167C14.167 16.3006 14.167 16.1449 14.167 15.8333C14.167 15.5218 14.167 15.366 14.1 15.25C14.0561 15.174 13.993 15.1109 13.917 15.067C13.801 15 13.6452 15 13.3337 15H11.667C11.3555 15 11.1997 15 11.0837 15.067C11.0076 15.1109 10.9445 15.174 10.9006 15.25Z" fill="#3267E3"/>
<path d="M5.83301 2.5L5.83301 5" stroke="#3267E3" stroke-width="2" stroke-linecap="round"/>
<path d="M14.167 2.5L14.167 5" stroke="#3267E3" stroke-width="2" stroke-linecap="round"/>
</svg>
