<svg width="20" height="20" viewBox="0 0 20 20" fill="none" xmlns="http://www.w3.org/2000/svg">
<path fill-rule="evenodd" clip-rule="evenodd" d="M10.3999 14.8012C11.7162 14.1069 15.8337 11.6069 15.8337 7.50002C15.8337 4.27836 13.222 1.66669 10.0003 1.66669C6.77866 1.66669 4.16699 4.27836 4.16699 7.50002C4.16699 11.6069 8.28441 14.1069 9.60079 14.8012C9.85275 14.9341 10.1479 14.9341 10.3999 14.8012ZM10.0003 10C11.381 10 12.5003 8.88073 12.5003 7.50002C12.5003 6.11931 11.381 5.00002 10.0003 5.00002C8.61961 5.00002 7.50033 6.11931 7.50033 7.50002C7.50033 8.88073 8.61961 10 10.0003 10Z" fill="#3267E3"/>
<path d="M15.0521 13.75C15.5641 14.13 15.8337 14.5612 15.8337 15C15.8337 15.4388 15.5641 15.87 15.0521 16.25C14.5402 16.63 13.8038 16.9456 12.917 17.1651C12.0302 17.3845 11.0243 17.5 10.0003 17.5C8.97636 17.5 7.97044 17.3845 7.08366 17.1651C6.19688 16.9456 5.46049 16.63 4.94851 16.25C4.43653 15.87 4.16699 15.4388 4.16699 15C4.16699 14.5612 4.43653 14.13 4.94851 13.75" stroke="#3267E3" stroke-width="2" stroke-linecap="round"/>
</svg>
